<svg width="14" height="21" viewBox="0 0 14 21" fill="none" xmlns="http://www.w3.org/2000/svg">
<path d="M3.4827e-05 10.5C3.4838e-05 10.2489 0.0534711 10.0053 0.160341 9.76924C0.267211 9.53318 0.409704 9.33731 0.587821 9.18161L10.4199 0.517936C10.8117 0.172645 11.3104 -1.17564e-07 11.916 -9.10929e-08C12.5216 -6.46215e-08 13.0204 0.172645 13.4122 0.517936C13.8041 0.863228 14 1.30269 14 1.83632C14 2.36995 13.8041 2.80942 13.4122 3.15471L5.07636 10.5L13.4122 17.8453C13.8041 18.1906 14 18.63 14 19.1637C14 19.6973 13.8041 20.1368 13.4122 20.4821C13.0204 20.8274 12.5216 21 11.916 21C11.3104 21 10.8117 20.8274 10.4199 20.4821L0.58782 11.8184C0.37408 11.63 0.222325 11.426 0.132554 11.2063C0.0427833 10.9865 -0.00139093 10.7511 3.4827e-05 10.5Z" fill="#5EB1BF"/>
</svg>
